<svg width="500" height="500" viewBox="0 0 500 500" fill="none" xmlns="http://www.w3.org/2000/svg">
<g clip-path="url(#clip0_1_158)">
<rect x="31" y="31" width="433" height="448" rx="35" fill="#9333EA"/>
<path fill-rule="evenodd" clip-rule="evenodd" d="M0 80C0 35.8172 35.8172 0 80 0H422C466.183 0 502 35.8172 502 80V422C502 466.183 466.183 502 422 502H80C35.8172 502 0 466.183 0 422V80ZM249.326 35.1935L252.339 35.7063L440.477 67.7295L455.846 70.3454L455.451 85.9299L437.457 85.4743C455.451 85.9299 455.451 85.9311 455.451 85.9331L455.451 85.9413L455.45 85.9728L455.447 86.0956L455.435 86.5761L455.422 87.0517L455.399 87.9613L455.386 88.444C455.342 90.0795 455.278 92.479 455.193 95.5407C455.022 101.664 454.77 110.437 454.44 121.049C453.78 142.267 452.811 170.855 451.575 200.307C450.34 229.732 448.834 260.137 447.095 284.947C446.227 297.339 445.29 308.485 444.283 317.482C443.339 325.918 442.182 334.028 440.519 339.322C426.943 382.517 396.766 407.362 370.985 426.322C339.225 449.681 309.806 462.975 288.108 470.453C277.26 474.191 268.333 476.479 261.991 477.847C258.82 478.531 256.292 478.985 254.49 479.276C253.589 479.422 252.87 479.527 252.341 479.599C252.077 479.635 251.861 479.663 251.693 479.684L251.623 479.693C251.569 479.699 251.521 479.705 251.479 479.71L251.4 479.719L251.368 479.723L251.353 479.725C251.346 479.725 251.34 479.726 249.319 461.84C247.334 479.73 247.328 479.73 247.321 479.729L247.307 479.727L247.274 479.724L247.196 479.714C247.137 479.708 247.065 479.699 246.981 479.689C246.92 479.681 246.852 479.673 246.778 479.663C246.648 479.647 246.498 479.627 246.328 479.605C245.794 479.533 245.066 479.429 244.154 479.284C242.33 478.994 239.768 478.541 236.555 477.859C230.13 476.494 221.087 474.21 210.12 470.474C188.187 463.002 158.506 449.706 126.712 426.322C100.931 407.362 70.7542 382.517 57.1785 339.322C55.5148 334.028 54.358 325.918 53.4141 317.482C52.4073 308.485 51.4705 297.339 50.6019 284.947C48.863 260.137 47.3567 229.732 46.1219 200.307C44.886 170.856 43.9172 142.267 43.2575 121.049C42.9276 110.438 42.6748 101.664 42.5045 95.5407C42.4193 92.479 42.3547 90.0796 42.3114 88.444C42.2897 87.6262 42.2733 86.9994 42.2624 86.5761L42.25 86.0956L42.2469 85.9728L42.2461 85.9413L42.2458 85.9331C42.2458 85.9311 42.2458 85.93 60.24 85.4743L42.2458 85.93L41.8508 70.3325L57.2342 67.7271L246.313 35.7038L249.326 35.1935ZM249.319 461.84L251.34 479.726L249.337 479.952L247.334 479.73L249.319 461.84ZM78.6622 100.611C78.8154 105.952 79.0087 112.486 79.2401 119.93C79.8974 141.069 80.8616 169.519 82.0903 198.798C83.3201 228.104 84.8098 258.119 86.5138 282.43C87.3668 294.599 88.2632 305.189 89.1908 313.479C90.1812 322.329 91.0599 327.057 91.5223 328.528C101.444 360.098 123.325 379.144 148.041 397.321C176.451 418.216 202.742 429.929 221.729 436.397C231.222 439.631 238.876 441.549 244.034 442.644C246.283 443.122 248.054 443.442 249.293 443.647C250.502 443.443 252.222 443.126 254.402 442.656C259.466 441.564 267.002 439.649 276.379 436.417C295.13 429.956 321.212 418.241 349.656 397.321C374.372 379.143 396.253 360.098 406.175 328.528C406.637 327.057 407.516 322.329 408.506 313.479C409.434 305.189 410.33 294.599 411.183 282.43C412.887 258.119 414.377 228.104 415.607 198.798C416.836 169.519 417.8 141.069 418.457 119.93C418.689 112.48 418.882 105.941 419.035 100.598L249.311 71.7087L78.6622 100.611ZM374.199 133.307L106.421 219.874C103.802 220.721 103.61 224.351 106.124 225.47L191.545 263.483C191.854 263.62 192.211 263.593 192.495 263.409L314.313 184.59C316.368 183.26 318.554 186.078 316.756 187.738L213.778 282.826C213.445 283.133 213.36 283.624 213.57 284.025L264.846 381.87C266.001 384.073 269.181 383.995 270.226 381.738L381.489 141.538C383.689 136.789 379.179 131.697 374.199 133.307ZM188.957 287.918V368.326C188.957 370.831 191.846 372.233 193.814 370.683L225.024 346.099C225.806 345.483 226.016 344.386 225.517 343.525L192.687 286.915C191.662 285.146 188.957 285.874 188.957 287.918Z" fill="white"/>
</g>
<defs>
<clipPath id="clip0_1_158">
<rect width="500" height="500" fill="white"/>
</clipPath>
</defs>
</svg>
